<svg width="66" height="66" viewBox="0 0 66 66" fill="none" xmlns="http://www.w3.org/2000/svg">
<g filter="url(#filter0_dd_2114_3288)">
<path d="M33 10C24.75 10 18 16.75 18 25C18 33.25 24.75 40 33 40C41.25 40 48 33.25 48 25C48 16.75 41.25 10 33 10ZM39.0855 31.609C38.8035 31.609 38.6625 31.468 38.3805 31.327C36.264 30.0565 33.5835 29.3515 30.762 29.3515C29.2095 29.3515 27.5175 29.6335 26.106 29.9155C25.824 29.9155 25.542 30.0565 25.401 30.0565C24.837 30.0565 24.414 29.6335 24.414 29.0695C24.414 28.5055 24.696 28.0825 25.26 28.0825C27.0945 27.6595 28.929 27.3775 30.9045 27.3775C34.149 27.3775 37.113 28.2235 39.6525 29.635C39.9345 29.917 40.2165 30.058 40.2165 30.622C39.9315 31.327 39.5085 31.609 39.0855 31.609ZM40.6365 27.6595C40.3545 27.6595 40.0725 27.5185 39.7905 27.3775C37.392 25.825 34.005 24.979 30.3375 24.979C28.503 24.979 26.8095 25.261 25.5405 25.543C25.2585 25.684 25.1175 25.684 24.8355 25.684C24.1305 25.684 23.706 25.12 23.706 24.5545C23.706 23.8495 23.988 23.5675 24.693 23.284C26.3865 22.861 28.08 22.438 30.4785 22.438C34.4295 22.438 38.097 23.425 41.202 25.2595C41.625 25.5415 41.907 25.9645 41.907 26.389C41.766 27.094 41.343 27.6595 40.6365 27.6595ZM42.471 23.143C42.189 23.143 42.048 23.002 41.625 22.861C38.8035 21.3085 34.7115 20.3215 30.7605 20.3215C28.785 20.3215 26.6685 20.6035 24.834 21.0265C24.552 21.0265 24.411 21.1675 23.988 21.1675C23.142 21.31 22.5765 20.6035 22.5765 19.7575C22.5765 18.9115 22.9995 18.487 23.5635 18.346C25.8225 17.782 28.221 17.5 30.7605 17.5C35.1345 17.5 39.6495 18.487 43.1775 20.3215C43.6005 20.6035 44.0235 21.0265 44.0235 21.733C43.8825 22.579 43.317 23.143 42.471 23.143Z" fill="#20DB60"/>
</g>
<defs>
<filter id="filter0_dd_2114_3288" x="0" y="0" width="66" height="66" filterUnits="userSpaceOnUse" color-interpolation-filters="sRGB">
<feFlood flood-opacity="0" result="BackgroundImageFix"/>
<feColorMatrix in="SourceAlpha" type="matrix" values="0 0 0 0 0 0 0 0 0 0 0 0 0 0 0 0 0 0 127 0" result="hardAlpha"/>
<feOffset dy="4"/>
<feGaussianBlur stdDeviation="2"/>
<feColorMatrix type="matrix" values="0 0 0 0 0 0 0 0 0 0 0 0 0 0 0 0 0 0 0.3 0"/>
<feBlend mode="normal" in2="BackgroundImageFix" result="effect1_dropShadow_2114_3288"/>
<feColorMatrix in="SourceAlpha" type="matrix" values="0 0 0 0 0 0 0 0 0 0 0 0 0 0 0 0 0 0 127 0" result="hardAlpha"/>
<feMorphology radius="6" operator="dilate" in="SourceAlpha" result="effect2_dropShadow_2114_3288"/>
<feOffset dy="8"/>
<feGaussianBlur stdDeviation="6"/>
<feColorMatrix type="matrix" values="0 0 0 0 0 0 0 0 0 0 0 0 0 0 0 0 0 0 0.15 0"/>
<feBlend mode="normal" in2="effect1_dropShadow_2114_3288" result="effect2_dropShadow_2114_3288"/>
<feBlend mode="normal" in="SourceGraphic" in2="effect2_dropShadow_2114_3288" result="shape"/>
</filter>
</defs>
</svg>
